<?xml version="1.0" standalone="no"?>
<!DOCTYPE svg PUBLIC "-//W3C//DTD SVG 20010904//EN"
 "http://www.w3.org/TR/2001/REC-SVG-20010904/DTD/svg10.dtd">
<svg version="1.0" xmlns="http://www.w3.org/2000/svg"
 width="300.000000pt" height="300.000000pt" viewBox="0 0 300.000000 300.000000"
 preserveAspectRatio="xMidYMid meet">
<metadata>
Created by potrace 1.15, written by Peter Selinger 2001-2017
</metadata>
<g transform="translate(0.000000,300.000000) scale(0.100000,-0.100000)"
fill="#000000" stroke="none">
<path d="M1325 2904 c-91 -13 -238 -49 -309 -75 -455 -168 -791 -553 -898
-1030 -20 -89 -23 -132 -23 -294 0 -162 3 -205 23 -294 122 -545 533 -957
1081 -1082 112 -26 354 -36 474 -20 180 24 359 84 522 175 l68 39 -30 26 c-17
14 -36 36 -42 48 -13 27 -14 73 -1 93 7 11 9 2 8 -31 -3 -56 19 -92 61 -107
29 -10 35 -7 103 47 265 210 442 497 514 832 26 120 26 428 0 549 -91 424
-354 774 -727 969 -213 112 -368 151 -619 156 -96 2 -188 1 -205 -1z m-357
-159 c-14 -31 1 -87 35 -129 l24 -29 66 16 c36 10 74 17 84 17 10 -1 -25 -12
-77 -26 -109 -29 -249 -92 -341 -155 -82 -54 -207 -175 -269 -259 -265 -357
-294 -860 -71 -1236 138 -233 312 -367 565 -436 68 -19 107 -23 239 -23 108 0
146 -3 120 -8 -21 -5 -101 -7 -178 -4 -123 4 -152 8 -235 35 -141 46 -256 118
-370 233 -174 174 -268 382 -300 664 -20 170 9 362 80 534 16 41 30 75 30 77
0 2 -12 4 -26 4 -32 0 -84 50 -84 82 1 21 2 20 14 -7 15 -36 31 -49 71 -62 29
-9 30 -8 85 81 110 180 320 359 510 437 l80 33 -24 25 c-45 49 -58 100 -36
142 15 28 22 23 8 -6z m1195 -135 c-67 -38 -87 -69 -93 -144 l-5 -60 91 -90
c50 -50 110 -120 134 -155 66 -98 138 -258 161 -357 11 -49 27 -116 35 -149 8
-33 16 -74 18 -91 5 -41 32 -81 65 -99 16 -9 20 -14 10 -15 -8 0 -24 7 -35 15
-22 17 -38 20 -29 5 3 -5 2 -10 -3 -10 -12 0 -32 69 -32 111 0 161 -113 468
-229 620 -68 89 -182 195 -273 255 -113 73 -117 76 -68 53 25 -12 63 -34 85
-49 70 -47 68 -47 60 -1 -12 71 27 132 115 178 50 26 44 12 -7 -17z m-568
-420 c255 -65 465 -246 586 -504 20 -44 40 -94 44 -111 4 -16 -9 7 -28 52 -64
154 -155 280 -281 385 -76 64 -221 139 -311 162 -68 17 -254 40 -262 32 -3 -2
12 -7 33 -10 140 -21 248 -61 352 -130 44 -30 83 -52 86 -48 3 3 6 -1 6 -8 0
-8 14 -29 32 -47 29 -30 32 -31 45 -15 13 16 14 15 9 -6 -7 -33 76 -155 94
-139 10 9 11 8 6 -7 -4 -11 6 -49 26 -97 29 -72 33 -77 48 -64 9 8 22 15 29
15 7 0 0 -10 -14 -22 l-26 -23 15 -65 c8 -36 17 -98 21 -137 4 -40 11 -73 16
-73 5 0 3 -10 -5 -22 -7 -13 -17 -53 -20 -90 -4 -37 -9 -76 -13 -85 -5 -15 -3
-16 8 -5 7 6 18 12 23 12 6 0 -1 -10 -15 -23 -15 -12 -34 -42 -42 -67 -8 -25
-18 -53 -22 -62 -5 -13 -2 -18 11 -18 15 -1 13 -4 -7 -15 -15 -8 -41 -39 -58
-69 -16 -30 -35 -57 -41 -61 -20 -13 -9 -21 24 -17 38 4 76 -24 76 -55 -1 -13
-5 -10 -16 9 -15 29 -44 41 -82 35 -12 -2 -45 -29 -73 -60 -49 -55 -50 -57
-24 -57 59 0 97 -86 60 -136 -13 -17 -13 -15 -3 17 15 51 -5 90 -55 106 -36
12 -39 11 -90 -28 -68 -52 -173 -102 -267 -128 -114 -32 -117 -24 -5 13 169
55 266 116 382 240 203 217 273 558 177 854 -69 211 -219 388 -407 481 -117
58 -181 72 -352 80 l-150 6 75 13 c41 7 82 15 90 17 36 10 222 -6 295 -25z
m-807 -425 l3 -100 -29 -13 c-35 -15 -52 -49 -52 -102 l0 -40 -121 0 -122 0 7
51 c21 153 113 267 243 298 68 16 68 16 71 -94z m147 70 c57 -26 126 -91 150
-141 42 -88 39 -228 -6 -322 -12 -25 -67 -92 -122 -149 l-100 -103 137 0 136
0 0 -75 c0 -43 -4 -75 -10 -75 -5 0 -10 7 -10 15 0 24 -18 17 -22 -7 -2 -13
-9 -22 -17 -20 -8 2 -39 4 -69 6 -52 3 -71 15 -72 44 0 6 -7 12 -15 12 -8 0
-15 -7 -15 -15 0 -24 -18 -17 -22 8 -2 17 -10 22 -33 22 -27 0 -30 -3 -36 -40
-5 -39 -9 -37 -24 10 -8 27 -35 5 -35 -30 0 -19 -4 -37 -10 -40 -6 -4 -10 5
-10 19 0 17 -6 26 -15 26 -9 0 -20 10 -25 23 -7 17 -9 18 -9 5 -1 -10 -8 -18
-16 -18 -9 0 -18 -7 -21 -15 -11 -27 -24 -16 -24 21 0 36 -1 36 -32 30 -18 -3
-35 -12 -39 -18 -5 -7 -11 -9 -15 -5 -4 4 15 33 43 64 250 289 298 361 309
461 5 39 2 53 -18 82 -13 19 -34 39 -46 45 -21 9 -22 16 -22 113 l0 104 43 -7
c23 -4 65 -17 92 -30z m749 -17 c-4 -7 -49 -67 -98 -133 -132 -174 -123 -160
-100 -151 121 47 261 -19 321 -150 45 -100 39 -264 -13 -338 -14 -20 -14 -20
-14 2 0 22 -8 26 -42 23 -14 -2 -18 5 -18 33 0 33 -2 36 -30 36 -28 0 -30 -2
-30 -38 0 -35 -2 -38 -27 -37 -22 0 -29 -5 -31 -25 -4 -26 -19 -50 -32 -50 -4
0 -10 23 -13 52 -5 43 -3 56 13 73 75 80 41 218 -61 245 l-38 11 -4 77 -3 77
-2 -80 c-2 -80 -3 -80 -35 -95 -71 -33 -100 -137 -57 -208 27 -44 77 -74 118
-69 35 3 37 0 21 -36 -9 -21 -17 -24 -60 -23 -39 1 -49 4 -49 19 0 10 -8 17
-20 17 -16 0 -20 -7 -21 -32 -1 -22 -3 -26 -6 -12 -2 12 -13 24 -24 27 -16 4
-19 14 -19 66 0 54 -2 61 -20 61 -17 0 -20 -7 -20 -49 0 -52 -11 -64 -48 -54
-16 4 -21 -1 -24 -19 -3 -21 -6 -19 -25 18 -32 59 -46 151 -34 221 20 119 64
207 209 416 l96 137 123 0 c97 0 123 -3 117 -12z m662 -440 c-27 -41 -29 -98
-8 -161 20 -61 15 -72 -16 -32 -11 14 -23 25 -27 25 -7 0 -1 -58 12 -110 6
-24 6 -24 -20 -7 l-27 17 0 -28 c0 -39 28 -130 52 -169 21 -35 19 -39 -14 -22
-19 10 -20 9 -16 -25 2 -20 0 -36 -4 -36 -4 0 -8 5 -8 10 0 22 -16 8 -26 -22
-7 -18 -31 -78 -54 -132 -35 -82 -41 -108 -37 -144 3 -28 2 -39 -4 -31 -15 24
-10 96 10 148 47 118 54 167 55 381 l1 205 30 55 c17 30 45 65 64 77 43 29 56
29 37 1z m254 -134 c25 -87 25 -110 -1 -159 -24 -46 -55 -83 -43 -52 4 12 -5
30 -30 57 -21 24 -36 50 -36 66 0 39 26 80 59 94 27 11 29 16 24 44 -10 53 7
23 27 -50z m-650 -690 c-88 -88 -149 -134 -251 -188 -114 -61 -209 -93 -347
-116 -139 -24 -203 -25 -333 -3 -100 16 -100 16 -64 29 71 24 107 85 86 146
-14 39 -6 51 9 14 23 -61 1 -124 -53 -153 l-32 -17 55 -9 c97 -15 323 -2 433
27 180 46 342 136 478 265 40 38 76 70 79 71 2 0 -25 -29 -60 -66z"/>
</g>
</svg>
