<?xml version="1.0" standalone="no"?>
<!DOCTYPE svg PUBLIC "-//W3C//DTD SVG 20010904//EN"
 "http://www.w3.org/TR/2001/REC-SVG-20010904/DTD/svg10.dtd">
<svg version="1.0" xmlns="http://www.w3.org/2000/svg"
 width="800.000000pt" height="800.000000pt" viewBox="0 0 800.000000 800.000000"
 preserveAspectRatio="xMidYMid meet">
<metadata>
Created by potrace 1.11, written by Peter Selinger 2001-2013
</metadata>
<g transform="translate(0.000000,800.000000) scale(0.100000,-0.100000)"
fill="#000000" stroke="none">
<path d="M0 4000 l0 -4000 4000 0 4000 0 0 4000 0 4000 -4000 0 -4000 0 0
-4000z m5574 2738 c-3 -27 0 -59 10 -87 l16 -43 -25 6 c-29 7 -29 6 -13 -29
10 -22 20 -29 40 -26 3 0 11 -13 17 -29 5 -17 17 -33 25 -36 20 -8 33 -158 16
-179 -10 -12 -10 -18 0 -30 7 -8 10 -21 7 -29 -3 -8 1 -29 9 -45 25 -51 34
-126 40 -369 7 -219 6 -233 -11 -246 -17 -12 -23 -7 -69 58 -113 163 -306 342
-535 498 -249 170 -665 272 -1036 253 -553 -27 -977 -267 -1323 -747 -159
-221 -299 -649 -333 -1022 -16 -174 -6 -490 21 -669 89 -594 365 -1088 835
-1494 123 -106 274 -190 448 -248 148 -49 254 -65 441 -65 248 0 442 30 661
101 223 73 528 239 611 332 21 23 76 85 124 137 48 52 104 114 124 138 l38 42
73 0 c77 0 117 -18 130 -60 12 -39 -140 -373 -242 -530 -87 -134 -169 -208
-293 -268 -58 -28 -151 -65 -208 -84 -68 -22 -104 -39 -108 -50 -8 -26 -72
-73 -168 -124 -47 -25 -86 -51 -86 -58 0 -27 -49 -58 -109 -69 -54 -10 -61
-14 -66 -39 -8 -34 -9 -34 -61 -6 l-41 22 -46 -28 c-67 -38 -99 -98 -105 -192
-3 -54 -8 -74 -18 -74 -8 0 -14 3 -15 8 0 4 -8 50 -17 102 l-17 95 -35 -3
c-19 -2 -44 -12 -56 -23 -26 -24 -41 -24 -49 0 -8 26 -33 30 -73 12 -31 -14
-36 -13 -120 21 -69 28 -88 33 -90 21 -7 -28 -37 -7 -52 34 -10 30 -22 45 -41
52 -15 5 -53 25 -83 45 l-56 36 0 -55 c0 -41 -4 -55 -15 -55 -9 0 -16 14 -20
38 -12 75 -26 111 -52 131 -29 24 -61 27 -68 9 -3 -8 -24 -13 -53 -13 -54 1
-102 27 -102 56 0 28 -27 23 -34 -6 -7 -26 -40 -50 -56 -40 -6 3 -10 17 -10
31 0 47 -84 104 -205 139 -92 27 -158 59 -263 128 -248 163 -575 478 -720 695
-237 355 -366 685 -429 1099 -23 157 -23 537 0 698 84 563 322 1030 751 1473
353 364 860 597 1429 657 321 33 542 14 1227 -106 390 -69 356 -65 370 -39 7
12 36 60 66 106 44 68 59 84 79 84 23 0 24 -2 19 -42z m-1180 -1333 c11 -8 36
-15 55 -15 20 0 43 -5 51 -10 13 -9 11 -13 -10 -30 -30 -23 -63 -26 -80 -5 -7
8 -22 15 -34 15 -17 0 -18 -2 -6 -10 13 -9 12 -12 -4 -25 -11 -8 -26 -15 -33
-15 -21 0 -80 27 -88 39 -11 18 14 40 54 47 20 4 43 10 51 15 20 11 22 11 44
-6z m-204 -3 c0 -13 -12 -22 -22 -16 -10 6 -1 24 13 24 5 0 9 -4 9 -8z m-10
-92 c0 -5 -9 -10 -20 -10 -11 0 -20 5 -20 10 0 6 9 10 20 10 11 0 20 -4 20
-10z m1895 -61 c193 -87 255 -143 290 -261 14 -50 14 -53 -6 -74 -21 -23 -199
-134 -213 -134 -5 0 -6 7 -2 15 3 9 0 15 -10 15 -12 0 -15 -7 -11 -26 6 -34
-15 -41 -60 -20 -24 11 -33 21 -29 31 20 51 21 48 -17 42 -27 -4 -39 -2 -45 9
-5 9 -15 12 -25 9 -18 -8 -14 -17 35 -87 l26 -38 -21 -40 c-12 -21 -30 -41
-40 -44 -19 -5 -47 18 -47 38 0 7 -20 27 -45 45 -32 23 -42 36 -38 49 10 28
45 62 65 62 32 0 22 21 -26 54 -18 12 -18 14 -1 40 10 16 27 31 38 35 11 4 25
23 31 42 9 29 16 34 44 35 19 1 41 9 50 20 10 10 13 16 8 12 -6 -5 -17 -8 -25
-8 -12 0 -11 3 3 18 15 17 15 22 1 49 -25 51 -75 64 -197 54 -90 -7 -112 -12
-178 -46 -186 -93 -264 -172 -334 -338 l-16 -39 -51 37 c-28 20 -53 34 -56 32
-2 -3 14 -24 36 -46 48 -48 58 -78 38 -117 -7 -16 -19 -67 -26 -114 -7 -47
-15 -97 -17 -112 -3 -14 -1 -29 5 -32 5 -4 50 21 98 54 74 50 104 65 188 87
55 14 125 28 155 29 31 2 66 7 80 12 29 11 166 -9 264 -39 113 -34 226 -92
296 -154 142 -125 155 -140 173 -202 32 -107 47 -203 47 -293 0 -84 -2 -94
-39 -167 -21 -43 -45 -97 -51 -120 -7 -23 -33 -65 -57 -95 -24 -29 -56 -73
-70 -98 -15 -25 -44 -64 -64 -87 -21 -23 -46 -59 -55 -80 -14 -33 -17 -35 -23
-19 -7 18 -9 17 -26 -12 -20 -34 -42 -44 -30 -14 4 9 10 26 13 37 3 11 10 23
16 27 6 4 7 10 3 14 -11 11 -33 -24 -63 -101 -15 -38 -31 -74 -37 -80 -15 -15
1 71 19 107 17 33 7 32 -34 -6 -17 -15 -25 -17 -31 -8 -4 7 -15 10 -24 6 -9
-3 -17 -2 -17 3 0 12 -39 14 -80 3 -19 -5 -107 -12 -194 -14 -127 -5 -173 -2
-227 11 -64 15 -70 15 -94 -1 -26 -17 -27 -17 -21 2 6 16 2 19 -26 17 -18 0
-45 -5 -61 -9 -17 -5 -32 -4 -41 4 -24 19 -69 -16 -61 -48 5 -22 4 -24 -18
-18 -19 4 -26 1 -30 -14 -9 -35 -48 -24 -95 25 l-43 46 20 27 c18 26 18 28 1
50 -10 12 -23 22 -28 22 -6 0 -12 6 -15 13 -3 8 -10 6 -21 -8 -16 -20 -16 -20
-31 -1 -23 30 -19 39 30 65 46 24 59 58 22 55 -13 -1 -14 2 -7 16 14 25 13 30
-6 30 -8 0 -12 5 -9 10 4 6 -9 29 -29 51 -19 23 -38 54 -41 69 -4 16 -13 34
-20 40 -22 18 -55 116 -55 163 0 23 -11 81 -24 129 l-24 86 18 120 c9 66 27
149 38 184 12 34 28 97 38 138 15 69 57 194 89 265 19 43 137 188 226 275 65
65 93 84 210 142 147 73 237 104 345 117 40 5 80 14 90 20 13 8 49 10 109 6
80 -5 102 -11 200 -56z m-1982 21 c77 -20 97 -28 94 -41 -3 -10 6 -20 24 -28
24 -10 33 -9 68 9 23 11 41 16 41 11 0 -5 -4 -13 -10 -16 -18 -11 -11 -21 24
-33 60 -22 121 -86 180 -190 46 -82 58 -114 71 -187 20 -115 19 -141 -5 -175
-11 -16 -27 -45 -36 -65 -8 -20 -37 -64 -63 -98 -27 -34 -56 -77 -65 -94 -9
-18 -37 -56 -61 -84 -25 -27 -59 -74 -76 -104 -26 -47 -113 -135 -298 -304
-210 -192 -521 -490 -521 -500 0 -6 240 -15 285 -11 11 0 130 5 265 9 237 7
248 8 332 38 100 35 135 55 149 87 14 29 156 106 197 106 39 0 92 -43 92 -75
0 -13 -20 -47 -44 -77 -55 -65 -214 -221 -241 -235 -13 -7 -258 -10 -722 -9
-656 1 -703 2 -720 19 -17 16 -17 19 2 55 31 61 411 428 594 575 53 42 81 72
96 105 12 26 42 70 67 97 86 96 238 343 238 388 0 7 9 31 21 52 16 32 21 64
25 167 4 123 4 130 -26 205 -45 118 -88 183 -141 216 -54 33 -254 83 -272 69
-7 -5 -42 -12 -79 -14 -89 -7 -139 -33 -155 -78 -7 -19 -12 -75 -12 -123 -1
-100 -15 -141 -59 -179 -106 -89 -284 -69 -352 39 -31 48 -32 70 -5 123 23 45
193 204 243 226 26 12 62 33 81 48 21 15 63 31 110 41 42 9 88 23 102 31 49
26 103 32 284 30 154 -2 194 -5 278 -26z m191 22 c9 -15 -11 -34 -34 -30 -29
4 -37 25 -13 31 30 8 42 7 47 -1z m134 -4 c-3 -7 -15 -13 -28 -13 -13 0 -25 6
-27 13 -3 8 6 12 27 12 21 0 30 -4 28 -12z m1359 -454 c-9 -9 -28 6 -21 18 4
6 10 6 17 -1 6 -6 8 -13 4 -17z m-104 -101 c8 -7 -11 -33 -24 -33 -5 0 -9 9
-9 20 0 19 20 27 33 13z m398 -26 c-13 -13 -26 -3 -16 12 3 6 11 8 17 5 6 -4
6 -10 -1 -17z m-1204 -1302 c-4 -8 -11 -15 -17 -15 -14 0 -13 27 3 33 16 6 21
1 14 -18z m53 -121 c0 -10 -63 -74 -72 -74 -5 0 -8 13 -8 28 0 20 7 32 23 40
25 12 57 15 57 6z m1240 -74 c0 -5 -4 -10 -10 -10 -5 0 -10 5 -10 10 0 6 5 10
10 10 6 0 10 -4 10 -10z m-1225 -19 c3 -5 1 -13 -5 -16 -15 -9 -43 3 -35 15 8
13 32 13 40 1z m347 -53 c-7 -7 -12 -8 -12 -2 0 14 12 26 19 19 2 -3 -1 -11
-7 -17z m-94 -6 c2 -7 -3 -12 -12 -12 -9 0 -16 7 -16 16 0 17 22 14 28 -4z
m-143 -33 c7 -11 -22 -49 -37 -49 -10 0 -11 44 -1 53 10 10 31 8 38 -4z m-95
-20 c0 -5 -7 -9 -15 -9 -15 0 -20 12 -9 23 8 8 24 -1 24 -14z m289 -5 c-6 -7
-15 -11 -21 -8 -5 3 -4 12 3 20 6 7 15 11 21 8 5 -3 4 -12 -3 -20z m-1259
-610 c0 -29 -11 -31 -33 -6 -12 13 -14 21 -6 29 17 17 39 4 39 -23z m527 1 c5
-16 -22 -55 -39 -55 -18 0 -20 31 -3 50 22 24 34 25 42 5z m-233 -267 c-13
-14 -20 -15 -31 -7 -16 14 -17 31 -1 47 9 9 16 8 30 -5 17 -15 17 -17 2 -35z
m556 -710 c0 -14 -59 -78 -72 -78 -13 0 -9 57 5 68 10 9 34 17 60 21 4 0 7 -4
7 -11z m-1172 -50 c16 -16 15 -38 -1 -38 -18 0 -49 34 -40 43 10 11 28 8 41
-5z"/>
<path d="M5945 4970 c3 -5 8 -10 11 -10 2 0 4 5 4 10 0 6 -5 10 -11 10 -5 0
-7 -4 -4 -10z"/>
<path d="M5675 4470 c-11 -5 -36 -9 -56 -9 -48 -1 -160 -58 -231 -118 -53 -45
-90 -104 -113 -182 -4 -12 -18 -39 -31 -58 -18 -27 -24 -49 -24 -92 0 -32 -5
-62 -10 -67 -14 -14 2 -150 31 -255 20 -75 22 -77 44 -67 17 8 33 5 71 -12 46
-20 48 -22 30 -35 -14 -11 -24 -12 -39 -4 -15 9 -18 8 -12 -3 16 -27 41 -51
63 -59 27 -10 73 8 66 26 -6 15 33 45 57 45 10 0 26 -11 36 -23 10 -13 28 -29
41 -36 27 -14 28 -32 3 -55 -23 -20 -79 -14 -88 10 -8 21 -23 17 -23 -6 0 -11
5 -20 10 -20 22 0 8 -31 -22 -46 l-32 -17 22 -17 c12 -10 22 -22 22 -27 0 -6
11 -15 25 -21 20 -9 23 -9 18 4 -4 12 0 15 17 12 28 -4 39 -28 13 -29 -10 0
-3 -6 17 -14 54 -21 113 -18 173 9 57 25 137 90 137 111 0 6 24 48 54 92 61
91 109 207 127 306 23 125 -16 349 -84 483 -42 84 -63 102 -160 142 -85 35
-124 43 -152 32z m-208 -812 c45 -16 40 -42 -8 -46 -43 -4 -69 19 -49 43 15
18 15 18 57 3z m143 -43 c0 -8 -7 -15 -15 -15 -16 0 -20 12 -8 23 11 12 23 8
23 -8z"/>
<path d="M5388 3442 c-20 -4 -23 -17 -7 -28 12 -7 33 10 28 23 -2 5 -12 7 -21
5z"/>
<path d="M5046 3365 c4 -8 10 -15 15 -15 5 0 9 7 9 15 0 8 -7 15 -15 15 -9 0
-12 -6 -9 -15z"/>
<path d="M5125 3320 c11 -6 27 -25 34 -41 13 -30 40 -36 49 -11 2 7 0 11 -6
10 -5 -2 -18 7 -28 19 -11 12 -30 24 -44 27 -23 6 -23 5 -5 -4z"/>
<path d="M5065 3310 c3 -5 8 -10 11 -10 2 0 4 5 4 10 0 6 -5 10 -11 10 -5 0
-7 -4 -4 -10z"/>
<path d="M5064 3229 c-3 -6 -1 -16 5 -22 8 -8 11 -5 11 11 0 24 -5 28 -16 11z"/>
</g>
</svg>
